<svg width="307" height="241" viewBox="0 0 307 241" fill="none" xmlns="http://www.w3.org/2000/svg">
<g filter="url(#filter0_f_53_17)">
<ellipse cx="120.5" cy="120.5" rx="30.5" ry="30.5" fill="#193269"/>
</g>
<g filter="url(#filter1_b_53_17)">
<rect x="76" y="75" width="231" height="142" rx="15" fill="#779ECB" fill-opacity="0.31"/>
</g>
<g filter="url(#filter2_b_53_17)">
<rect x="76" y="119" width="231" height="98" rx="15" fill="white" fill-opacity="0.2"/>
</g>
<g filter="url(#filter3_d_53_17)">
<path d="M102.067 159.1L97.953 168.28C97.5337 169.221 97.0917 169.912 96.627 170.354C96.1737 170.785 95.6297 171 94.995 171C94.3943 171 93.9127 170.858 93.55 170.575L94.06 169.351C94.3547 169.555 94.6607 169.657 94.978 169.657C95.5673 169.657 96.0547 169.255 96.44 168.45L96.644 168.008L91.255 159.1H92.887L97.341 166.563L100.605 159.1H102.067ZM104.685 171.17C104.095 171.17 103.483 171.074 102.849 170.881C102.214 170.677 101.772 170.428 101.523 170.133L102.22 169.113C102.526 169.362 102.888 169.566 103.308 169.725C103.738 169.872 104.129 169.946 104.481 169.946C105.07 169.946 105.552 169.833 105.926 169.606C106.3 169.368 106.487 169.062 106.487 168.688C106.487 168.371 106.351 168.127 106.079 167.957C105.818 167.787 105.455 167.702 104.991 167.702H103.699V166.597H104.906C105.291 166.597 105.608 166.495 105.858 166.291C106.107 166.076 106.232 165.815 106.232 165.509C106.232 165.169 106.084 164.903 105.79 164.71C105.495 164.506 105.098 164.404 104.6 164.404C103.784 164.404 103.019 164.687 102.305 165.254L101.778 164.2C102.084 163.883 102.509 163.633 103.053 163.452C103.608 163.271 104.192 163.18 104.804 163.18C105.722 163.18 106.43 163.367 106.929 163.741C107.427 164.104 107.677 164.602 107.677 165.237C107.677 166.121 107.229 166.722 106.334 167.039V167.073C106.844 167.13 107.235 167.328 107.507 167.668C107.79 168.008 107.932 168.41 107.932 168.875C107.932 169.578 107.631 170.139 107.031 170.558C106.43 170.966 105.648 171.17 104.685 171.17ZM115.614 171V167.77H111.364V171H110.004V163.35H111.364V166.495H115.614V163.35H116.974V171H115.614ZM119.842 164.965L119.485 163.877C120.233 163.412 121.083 163.18 122.035 163.18C123.089 163.18 123.843 163.441 124.296 163.962C124.749 164.483 124.976 165.265 124.976 166.308V171H123.684V170.014C123.095 170.751 122.279 171.119 121.236 171.119C120.533 171.119 119.967 170.909 119.536 170.49C119.105 170.059 118.89 169.481 118.89 168.756C118.89 167.997 119.156 167.402 119.689 166.971C120.233 166.54 120.93 166.325 121.78 166.325C122.596 166.325 123.231 166.489 123.684 166.818C123.684 166.002 123.571 165.396 123.344 164.999C123.117 164.602 122.653 164.404 121.95 164.404C121.259 164.404 120.556 164.591 119.842 164.965ZM121.712 169.895C122.471 169.895 123.129 169.566 123.684 168.909V167.94C123.208 167.6 122.636 167.43 121.967 167.43C121.514 167.43 121.128 167.538 120.811 167.753C120.494 167.968 120.335 168.28 120.335 168.688C120.335 169.062 120.454 169.357 120.692 169.572C120.941 169.787 121.281 169.895 121.712 169.895ZM128.613 171H127.253V163.35H128.613V169.045L133.033 163.35H134.393V171H133.033V165.305L128.613 171ZM128.341 159.44H129.616C129.684 160.335 130.121 160.783 130.925 160.783C131.685 160.783 132.098 160.335 132.166 159.44H133.441C133.441 160.12 133.209 160.687 132.744 161.14C132.28 161.593 131.673 161.82 130.925 161.82C130.109 161.82 129.475 161.599 129.021 161.157C128.568 160.715 128.341 160.143 128.341 159.44ZM135.897 164.71V163.35H142.867V164.71H140.062V171H138.702V164.71H135.897ZM150.139 169.096L150.564 170.167C149.827 170.836 148.87 171.17 147.691 171.17C146.456 171.17 145.464 170.807 144.716 170.082C143.968 169.357 143.594 168.388 143.594 167.175C143.594 166.019 143.945 165.067 144.648 164.319C145.351 163.56 146.314 163.18 147.538 163.18C148.547 163.18 149.391 163.509 150.071 164.166C150.751 164.812 151.091 165.651 151.091 166.682C151.091 167.033 151.063 167.339 151.006 167.6H145.124C145.181 168.314 145.447 168.875 145.923 169.283C146.41 169.691 147.034 169.895 147.793 169.895C148.79 169.895 149.572 169.629 150.139 169.096ZM147.47 164.455C146.79 164.455 146.235 164.648 145.804 165.033C145.373 165.407 145.118 165.894 145.039 166.495H149.68C149.646 165.86 149.431 165.362 149.034 164.999C148.649 164.636 148.127 164.455 147.47 164.455ZM162.67 158.93L163.401 160.001C163.129 160.375 162.801 160.63 162.415 160.766C162.03 160.902 161.554 161.015 160.987 161.106C160.421 161.197 159.928 161.338 159.508 161.531C158.352 162.052 157.706 163.282 157.57 165.22H157.604C157.854 164.687 158.256 164.257 158.811 163.928C159.378 163.599 159.984 163.435 160.63 163.435C161.718 163.435 162.58 163.781 163.214 164.472C163.86 165.163 164.183 166.087 164.183 167.243C164.183 168.331 163.815 169.26 163.078 170.031C162.342 170.79 161.401 171.17 160.256 171.17C159.01 171.17 158.024 170.745 157.298 169.895C156.573 169.045 156.21 167.883 156.21 166.41C156.21 163.089 157.157 161.032 159.049 160.239C159.514 160.035 160.013 159.893 160.545 159.814C161.078 159.723 161.509 159.627 161.837 159.525C162.166 159.423 162.444 159.225 162.67 158.93ZM157.655 166.665C157.655 167.64 157.893 168.422 158.369 169.011C158.845 169.6 159.463 169.895 160.222 169.895C160.959 169.895 161.56 169.646 162.024 169.147C162.5 168.648 162.738 168.036 162.738 167.311C162.738 166.54 162.523 165.917 162.092 165.441C161.662 164.954 161.061 164.71 160.29 164.71C159.61 164.71 159.032 164.903 158.556 165.288C158.08 165.673 157.78 166.132 157.655 166.665ZM166.746 170.048C165.998 169.289 165.624 168.331 165.624 167.175C165.624 166.019 165.998 165.067 166.746 164.319C167.505 163.56 168.491 163.18 169.704 163.18C170.917 163.18 171.897 163.56 172.645 164.319C173.404 165.067 173.784 166.019 173.784 167.175C173.784 168.331 173.404 169.289 172.645 170.048C171.897 170.796 170.917 171.17 169.704 171.17C168.491 171.17 167.505 170.796 166.746 170.048ZM167.069 167.175C167.069 167.968 167.313 168.62 167.8 169.13C168.299 169.64 168.933 169.895 169.704 169.895C170.475 169.895 171.104 169.646 171.591 169.147C172.09 168.637 172.339 167.98 172.339 167.175C172.339 166.382 172.09 165.73 171.591 165.22C171.104 164.71 170.475 164.455 169.704 164.455C168.945 164.455 168.316 164.71 167.817 165.22C167.318 165.719 167.069 166.37 167.069 167.175ZM180.684 171V164.71H177.998L177.913 166.002C177.845 166.852 177.743 167.589 177.607 168.212C177.471 168.824 177.312 169.317 177.131 169.691C176.961 170.054 176.751 170.343 176.502 170.558C176.252 170.773 175.997 170.921 175.737 171C175.476 171.068 175.176 171.102 174.836 171.102L174.734 169.776C174.87 169.787 175 169.77 175.125 169.725C175.261 169.668 175.408 169.555 175.567 169.385C175.737 169.215 175.884 168.988 176.009 168.705C176.145 168.422 176.264 168.025 176.366 167.515C176.479 166.994 176.553 166.399 176.587 165.73L176.723 163.35H182.044V171H180.684ZM184.495 171V163.35H185.855V165.645H187.249C188.337 165.645 189.114 165.894 189.578 166.393C190.043 166.88 190.275 167.509 190.275 168.28C190.275 169.051 190.02 169.697 189.51 170.218C189 170.739 188.19 171 187.079 171H184.495ZM186.994 166.92H185.855V169.725H186.977C188.213 169.725 188.83 169.26 188.83 168.331C188.83 167.39 188.218 166.92 186.994 166.92ZM192.099 171V163.35H193.459V169.725H196.264V163.35H197.624V169.725H200.429V163.35H201.789V171H192.099ZM210.286 169.096L210.711 170.167C209.975 170.836 209.017 171.17 207.838 171.17C206.603 171.17 205.611 170.807 204.863 170.082C204.115 169.357 203.741 168.388 203.741 167.175C203.741 166.019 204.093 165.067 204.795 164.319C205.498 163.56 206.461 163.18 207.685 163.18C208.694 163.18 209.538 163.509 210.218 164.166C210.898 164.812 211.238 165.651 211.238 166.682C211.238 167.033 211.21 167.339 211.153 167.6H205.271C205.328 168.314 205.594 168.875 206.07 169.283C206.558 169.691 207.181 169.895 207.94 169.895C208.938 169.895 209.72 169.629 210.286 169.096ZM207.617 164.455C206.937 164.455 206.382 164.648 205.951 165.033C205.521 165.407 205.266 165.894 205.186 166.495H209.827C209.793 165.86 209.578 165.362 209.181 164.999C208.796 164.636 208.275 164.455 207.617 164.455ZM217.514 170.048C216.766 169.289 216.392 168.331 216.392 167.175C216.392 166.019 216.766 165.067 217.514 164.319C218.273 163.56 219.259 163.18 220.472 163.18C221.684 163.18 222.665 163.56 223.413 164.319C224.172 165.067 224.552 166.019 224.552 167.175C224.552 168.331 224.172 169.289 223.413 170.048C222.665 170.796 221.684 171.17 220.472 171.17C219.259 171.17 218.273 170.796 217.514 170.048ZM217.837 167.175C217.837 167.968 218.08 168.62 218.568 169.13C219.066 169.64 219.701 169.895 220.472 169.895C221.242 169.895 221.871 169.646 222.359 169.147C222.857 168.637 223.107 167.98 223.107 167.175C223.107 166.382 222.857 165.73 222.359 165.22C221.871 164.71 221.242 164.455 220.472 164.455C219.712 164.455 219.083 164.71 218.585 165.22C218.086 165.719 217.837 166.37 217.837 167.175ZM229.363 164.71V163.35H236.333V164.71H233.528V171H232.168V164.71H229.363ZM238.183 170.048C237.435 169.289 237.061 168.331 237.061 167.175C237.061 166.019 237.435 165.067 238.183 164.319C238.942 163.56 239.928 163.18 241.141 163.18C242.353 163.18 243.334 163.56 244.082 164.319C244.841 165.067 245.221 166.019 245.221 167.175C245.221 168.331 244.841 169.289 244.082 170.048C243.334 170.796 242.353 171.17 241.141 171.17C239.928 171.17 238.942 170.796 238.183 170.048ZM238.506 167.175C238.506 167.968 238.749 168.62 239.237 169.13C239.735 169.64 240.37 169.895 241.141 169.895C241.911 169.895 242.54 169.646 243.028 169.147C243.526 168.637 243.776 167.98 243.776 167.175C243.776 166.382 243.526 165.73 243.028 165.22C242.54 164.71 241.911 164.455 241.141 164.455C240.381 164.455 239.752 164.71 239.254 165.22C238.755 165.719 238.506 166.37 238.506 167.175ZM247.183 171V163.35H248.424L251.365 167.141L254.153 163.35H255.36V171H254V165.424L251.348 168.977H251.297L248.543 165.424V171H247.183ZM257.519 170.218C257.519 169.946 257.604 169.731 257.774 169.572C257.944 169.402 258.182 169.317 258.488 169.317C258.85 169.317 259.145 169.47 259.372 169.776C259.598 170.071 259.712 170.467 259.712 170.966C259.712 171.589 259.542 172.122 259.202 172.564C258.862 173.006 258.408 173.312 257.842 173.482L257.468 172.836C258.057 172.643 258.42 172.264 258.556 171.697C258.646 171.312 258.641 171.028 258.539 170.847C258.471 170.949 258.346 171 258.165 171C257.995 171 257.842 170.926 257.706 170.779C257.581 170.62 257.519 170.433 257.519 170.218Z" fill="white"/>
</g>
<g filter="url(#filter4_d_53_17)">
<path d="M100.922 185.35L97.573 189.005L101.245 193H99.358L95.907 189.09L99.137 185.35H100.922ZM94.224 193V185.35H95.584V193H94.224ZM103.099 186.965L102.742 185.877C103.49 185.412 104.34 185.18 105.292 185.18C106.346 185.18 107.099 185.441 107.553 185.962C108.006 186.483 108.233 187.265 108.233 188.308V193H106.941V192.014C106.351 192.751 105.535 193.119 104.493 193.119C103.79 193.119 103.223 192.909 102.793 192.49C102.362 192.059 102.147 191.481 102.147 190.756C102.147 189.997 102.413 189.402 102.946 188.971C103.49 188.54 104.187 188.325 105.037 188.325C105.853 188.325 106.487 188.489 106.941 188.818C106.941 188.002 106.827 187.396 106.601 186.999C106.374 186.602 105.909 186.404 105.207 186.404C104.515 186.404 103.813 186.591 103.099 186.965ZM104.969 191.895C105.728 191.895 106.385 191.566 106.941 190.909V189.94C106.465 189.6 105.892 189.43 105.224 189.43C104.77 189.43 104.385 189.538 104.068 189.753C103.75 189.968 103.592 190.28 103.592 190.688C103.592 191.062 103.711 191.357 103.949 191.572C104.198 191.787 104.538 191.895 104.969 191.895ZM117.208 185.35L113.859 189.005L117.531 193H115.644L112.193 189.09L115.423 185.35H117.208ZM110.51 193V185.35H111.87V193H110.51ZM123.985 189.668V188.563H127.742C127.64 187.872 127.351 187.35 126.875 186.999C126.399 186.636 125.804 186.455 125.09 186.455C124.15 186.455 123.368 186.733 122.744 187.288L122.166 186.268C122.506 185.928 122.948 185.662 123.492 185.469C124.036 185.276 124.563 185.18 125.073 185.18C126.286 185.18 127.266 185.543 128.014 186.268C128.774 186.993 129.153 187.962 129.153 189.175C129.153 190.297 128.785 191.243 128.048 192.014C127.312 192.785 126.388 193.17 125.277 193.17C123.883 193.17 122.858 192.847 122.2 192.201L122.846 191.198C123.356 191.663 124.138 191.895 125.192 191.895C125.906 191.895 126.49 191.702 126.943 191.317C127.397 190.92 127.669 190.371 127.759 189.668H123.985ZM129.845 186.71V185.35H136.815V186.71H134.01V193H132.65V186.71H129.845ZM138.664 192.048C137.916 191.289 137.542 190.331 137.542 189.175C137.542 188.019 137.916 187.067 138.664 186.319C139.423 185.56 140.409 185.18 141.622 185.18C142.835 185.18 143.815 185.56 144.563 186.319C145.322 187.067 145.702 188.019 145.702 189.175C145.702 190.331 145.322 191.289 144.563 192.048C143.815 192.796 142.835 193.17 141.622 193.17C140.409 193.17 139.423 192.796 138.664 192.048ZM138.987 189.175C138.987 189.968 139.231 190.62 139.718 191.13C140.217 191.64 140.851 191.895 141.622 191.895C142.393 191.895 143.022 191.646 143.509 191.147C144.008 190.637 144.257 189.98 144.257 189.175C144.257 188.382 144.008 187.73 143.509 187.22C143.022 186.71 142.393 186.455 141.622 186.455C140.863 186.455 140.234 186.71 139.735 187.22C139.236 187.719 138.987 188.37 138.987 189.175ZM157.365 190.909L158.011 191.895C157.693 192.303 157.274 192.62 156.753 192.847C156.231 193.062 155.67 193.17 155.07 193.17C153.846 193.17 152.854 192.807 152.095 192.082C151.347 191.345 150.973 190.376 150.973 189.175C150.973 188.053 151.341 187.107 152.078 186.336C152.814 185.565 153.738 185.18 154.849 185.18C156.186 185.18 157.189 185.514 157.858 186.183L157.229 187.254C156.651 186.721 155.92 186.455 155.036 186.455C154.322 186.455 153.704 186.716 153.183 187.237C152.673 187.747 152.418 188.393 152.418 189.175C152.418 189.991 152.678 190.648 153.2 191.147C153.732 191.646 154.39 191.895 155.172 191.895C156.056 191.895 156.787 191.566 157.365 190.909ZM158.58 194.87V191.725H159.532C159.804 191.385 160.048 190.824 160.263 190.042C160.49 189.26 160.637 188.37 160.705 187.373L160.824 185.35H166.043V191.725H167.318V194.87H166.043V193H159.855V194.87H158.58ZM162.014 187.9C161.935 188.795 161.793 189.589 161.589 190.28C161.385 190.971 161.181 191.453 160.977 191.725H164.683V186.625H162.099L162.014 187.9ZM174.833 191.096L175.258 192.167C174.522 192.836 173.564 193.17 172.385 193.17C171.15 193.17 170.158 192.807 169.41 192.082C168.662 191.357 168.288 190.388 168.288 189.175C168.288 188.019 168.64 187.067 169.342 186.319C170.045 185.56 171.008 185.18 172.232 185.18C173.241 185.18 174.085 185.509 174.765 186.166C175.445 186.812 175.785 187.651 175.785 188.682C175.785 189.033 175.757 189.339 175.7 189.6H169.818C169.875 190.314 170.141 190.875 170.617 191.283C171.105 191.691 171.728 191.895 172.487 191.895C173.485 191.895 174.267 191.629 174.833 191.096ZM172.164 186.455C171.484 186.455 170.929 186.648 170.498 187.033C170.068 187.407 169.813 187.894 169.733 188.495H174.374C174.34 187.86 174.125 187.362 173.728 186.999C173.343 186.636 172.822 186.455 172.164 186.455ZM182.567 193V186.71H179.881L179.796 188.002C179.728 188.852 179.626 189.589 179.49 190.212C179.354 190.824 179.196 191.317 179.014 191.691C178.844 192.054 178.635 192.343 178.385 192.558C178.136 192.773 177.881 192.921 177.62 193C177.36 193.068 177.059 193.102 176.719 193.102L176.617 191.776C176.753 191.787 176.884 191.77 177.008 191.725C177.144 191.668 177.292 191.555 177.45 191.385C177.62 191.215 177.768 190.988 177.892 190.705C178.028 190.422 178.147 190.025 178.249 189.515C178.363 188.994 178.436 188.399 178.47 187.73L178.606 185.35H183.927V193H182.567ZM186.787 186.965L186.43 185.877C187.178 185.412 188.028 185.18 188.98 185.18C190.034 185.18 190.788 185.441 191.241 185.962C191.695 186.483 191.921 187.265 191.921 188.308V193H190.629V192.014C190.04 192.751 189.224 193.119 188.181 193.119C187.479 193.119 186.912 192.909 186.481 192.49C186.051 192.059 185.835 191.481 185.835 190.756C185.835 189.997 186.102 189.402 186.634 188.971C187.178 188.54 187.875 188.325 188.725 188.325C189.541 188.325 190.176 188.489 190.629 188.818C190.629 188.002 190.516 187.396 190.289 186.999C190.063 186.602 189.598 186.404 188.895 186.404C188.204 186.404 187.501 186.591 186.787 186.965ZM188.657 191.895C189.417 191.895 190.074 191.566 190.629 190.909V189.94C190.153 189.6 189.581 189.43 188.912 189.43C188.459 189.43 188.074 189.538 187.756 189.753C187.439 189.968 187.28 190.28 187.28 190.688C187.28 191.062 187.399 191.357 187.637 191.572C187.887 191.787 188.227 191.895 188.657 191.895ZM193.23 186.71V185.35H200.2V186.71H197.395V193H196.035V186.71H193.23ZM201.686 193V185.35H203.046V187.645H204.44C205.528 187.645 206.304 187.894 206.769 188.393C207.234 188.88 207.466 189.509 207.466 190.28C207.466 191.051 207.211 191.697 206.701 192.218C206.191 192.739 205.381 193 204.27 193H201.686ZM204.185 188.92H203.046V191.725H204.168C205.403 191.725 206.021 191.26 206.021 190.331C206.021 189.39 205.409 188.92 204.185 188.92Z" fill="white"/>
</g>
<g filter="url(#filter5_d_53_17)">
<path d="M94.6 107.264C93.24 107.264 92.064 106.992 91.072 106.448C90.096 105.888 89.352 105.216 88.84 104.432L90.448 102.44C90.976 103.048 91.608 103.544 92.344 103.928C93.08 104.312 93.784 104.504 94.456 104.504C95.336 104.504 96.072 104.296 96.664 103.88C97.256 103.448 97.552 102.824 97.552 102.008C97.552 101.336 97.296 100.8 96.784 100.4C96.272 100 95.536 99.8 94.576 99.8H92.848V97.04H94.48C95.136 97.04 95.704 96.84 96.184 96.44C96.664 96.04 96.904 95.504 96.904 94.832C96.904 94.144 96.68 93.616 96.232 93.248C95.784 92.88 95.192 92.696 94.456 92.696C93.096 92.696 91.96 93.304 91.048 94.52L89.344 92.552C89.904 91.768 90.672 91.136 91.648 90.656C92.624 90.176 93.672 89.936 94.792 89.936C96.312 89.936 97.528 90.344 98.44 91.16C99.368 91.96 99.832 93.088 99.832 94.544C99.832 95.232 99.64 95.912 99.256 96.584C98.872 97.256 98.312 97.808 97.576 98.24V98.312C98.552 98.552 99.28 99.024 99.76 99.728C100.24 100.432 100.48 101.288 100.48 102.296C100.48 103.784 99.896 104.984 98.728 105.896C97.576 106.808 96.2 107.264 94.6 107.264ZM104.415 98.984L103.719 96.968C104.887 96.28 106.159 95.936 107.535 95.936C109.071 95.936 110.175 96.312 110.847 97.064C111.519 97.816 111.855 98.936 111.855 100.424V107H109.455V105.752C108.799 106.68 107.735 107.144 106.263 107.144C105.255 107.144 104.439 106.848 103.815 106.256C103.191 105.664 102.879 104.856 102.879 103.832C102.879 102.696 103.247 101.832 103.983 101.24C104.719 100.632 105.663 100.328 106.815 100.328C107.807 100.328 108.623 100.56 109.263 101.024C109.295 100.08 109.159 99.384 108.855 98.936C108.551 98.472 108.015 98.24 107.247 98.24C106.447 98.24 105.503 98.488 104.415 98.984ZM107.175 104.816C108.103 104.816 108.799 104.488 109.263 103.832V102.728C108.799 102.376 108.167 102.2 107.367 102.2C106.871 102.2 106.455 102.32 106.119 102.56C105.799 102.784 105.639 103.112 105.639 103.544C105.639 103.944 105.783 104.256 106.071 104.48C106.359 104.704 106.727 104.816 107.175 104.816ZM122.796 89.936L124.236 92.192C123.82 92.688 123.34 93.04 122.796 93.248C122.252 93.44 121.612 93.616 120.876 93.776C120.156 93.92 119.532 94.12 119.004 94.376C117.66 95 116.884 96.344 116.676 98.408H116.724C117.06 97.816 117.58 97.336 118.284 96.968C118.988 96.584 119.732 96.392 120.516 96.392C122.004 96.392 123.196 96.872 124.092 97.832C124.988 98.792 125.436 100.08 125.436 101.696C125.436 103.248 124.908 104.568 123.852 105.656C122.796 106.728 121.436 107.264 119.772 107.264C117.964 107.264 116.532 106.648 115.476 105.416C114.436 104.184 113.916 102.52 113.916 100.424C113.916 95.8 115.276 92.904 117.996 91.736C118.604 91.48 119.26 91.288 119.964 91.16C120.668 91.016 121.228 90.872 121.644 90.728C122.076 90.584 122.46 90.32 122.796 89.936ZM116.868 101C116.884 102.072 117.148 102.96 117.66 103.664C118.172 104.352 118.852 104.696 119.7 104.696C120.548 104.696 121.22 104.424 121.716 103.88C122.228 103.32 122.484 102.632 122.484 101.816C122.484 100.984 122.252 100.304 121.788 99.776C121.324 99.232 120.668 98.96 119.82 98.96C119.084 98.96 118.452 99.152 117.924 99.536C117.412 99.92 117.06 100.408 116.868 101ZM127.833 111.8V96.2H130.593V97.232C130.945 96.864 131.417 96.56 132.009 96.32C132.617 96.064 133.257 95.936 133.929 95.936C135.401 95.936 136.585 96.448 137.481 97.472C138.377 98.496 138.825 99.816 138.825 101.432C138.825 103.112 138.297 104.504 137.241 105.608C136.185 106.712 134.809 107.264 133.113 107.264C132.041 107.264 131.201 107.088 130.593 106.736V111.8H127.833ZM133.065 98.528C132.121 98.528 131.297 98.92 130.593 99.704V104.072C131.233 104.488 131.993 104.696 132.873 104.696C133.801 104.696 134.537 104.4 135.081 103.808C135.625 103.2 135.897 102.432 135.897 101.504C135.897 100.624 135.649 99.912 135.153 99.368C134.657 98.808 133.961 98.528 133.065 98.528ZM142.152 105.68C141.08 104.608 140.544 103.248 140.544 101.6C140.544 99.952 141.08 98.6 142.152 97.544C143.24 96.472 144.664 95.936 146.424 95.936C148.184 95.936 149.6 96.472 150.672 97.544C151.76 98.6 152.304 99.952 152.304 101.6C152.304 103.248 151.76 104.608 150.672 105.68C149.6 106.736 148.184 107.264 146.424 107.264C144.664 107.264 143.24 106.736 142.152 105.68ZM143.496 101.6C143.496 102.496 143.768 103.24 144.312 103.832C144.872 104.408 145.576 104.696 146.424 104.696C147.288 104.696 147.992 104.416 148.536 103.856C149.096 103.28 149.376 102.528 149.376 101.6C149.376 100.704 149.096 99.968 148.536 99.392C147.976 98.816 147.272 98.528 146.424 98.528C145.592 98.528 144.896 98.816 144.336 99.392C143.776 99.952 143.496 100.688 143.496 101.6ZM162.18 107V102.872H157.452V107H154.692V96.2H157.452V100.28H162.18V96.2H164.94V107H162.18ZM170.765 107H168.005V96.2H170.765V103.04L175.805 96.2H178.565V107H175.805V100.16L170.765 107ZM181.645 111.8V96.2H184.405V97.232C184.757 96.864 185.229 96.56 185.821 96.32C186.429 96.064 187.069 95.936 187.741 95.936C189.213 95.936 190.397 96.448 191.293 97.472C192.189 98.496 192.637 99.816 192.637 101.432C192.637 103.112 192.109 104.504 191.053 105.608C189.997 106.712 188.621 107.264 186.925 107.264C185.853 107.264 185.013 107.088 184.405 106.736V111.8H181.645ZM186.877 98.528C185.933 98.528 185.109 98.92 184.405 99.704V104.072C185.045 104.488 185.805 104.696 186.685 104.696C187.613 104.696 188.349 104.4 188.893 103.808C189.437 103.2 189.709 102.432 189.709 101.504C189.709 100.624 189.461 99.912 188.965 99.368C188.469 98.808 187.773 98.528 186.877 98.528ZM195.964 105.68C194.892 104.608 194.356 103.248 194.356 101.6C194.356 99.952 194.892 98.6 195.964 97.544C197.052 96.472 198.476 95.936 200.236 95.936C201.996 95.936 203.412 96.472 204.484 97.544C205.572 98.6 206.116 99.952 206.116 101.6C206.116 103.248 205.572 104.608 204.484 105.68C203.412 106.736 201.996 107.264 200.236 107.264C198.476 107.264 197.052 106.736 195.964 105.68ZM197.308 101.6C197.308 102.496 197.58 103.24 198.124 103.832C198.684 104.408 199.388 104.696 200.236 104.696C201.1 104.696 201.804 104.416 202.348 103.856C202.908 103.28 203.188 102.528 203.188 101.6C203.188 100.704 202.908 99.968 202.348 99.392C201.788 98.816 201.084 98.528 200.236 98.528C199.404 98.528 198.708 98.816 198.148 99.392C197.588 99.952 197.308 100.688 197.308 101.6ZM208.505 107V96.2C208.697 96.2 209.049 96.192 209.561 96.176C210.089 96.144 210.625 96.12 211.169 96.104C211.729 96.088 212.257 96.08 212.753 96.08C216.017 96.08 217.649 97.024 217.649 98.912C217.649 99.536 217.449 100.072 217.049 100.52C216.665 100.968 216.193 101.232 215.633 101.312V101.36C217.169 101.728 217.937 102.56 217.937 103.856C217.937 106.032 216.225 107.12 212.801 107.12C212.321 107.12 211.561 107.096 210.521 107.048C209.481 107.016 208.809 107 208.505 107ZM212.993 102.416H211.265V104.816C212.353 104.88 212.961 104.912 213.089 104.912C213.697 104.912 214.169 104.8 214.505 104.576C214.857 104.352 215.033 104.048 215.033 103.664C215.033 102.832 214.353 102.416 212.993 102.416ZM212.993 98.312C212.225 98.312 211.649 98.328 211.265 98.36V100.736H213.065C213.545 100.736 213.937 100.632 214.241 100.424C214.561 100.2 214.721 99.888 214.721 99.488C214.721 98.704 214.145 98.312 212.993 98.312ZM221.392 98.984L220.696 96.968C221.864 96.28 223.136 95.936 224.512 95.936C226.048 95.936 227.152 96.312 227.824 97.064C228.496 97.816 228.832 98.936 228.832 100.424V107H226.432V105.752C225.776 106.68 224.712 107.144 223.24 107.144C222.232 107.144 221.416 106.848 220.792 106.256C220.168 105.664 219.856 104.856 219.856 103.832C219.856 102.696 220.224 101.832 220.96 101.24C221.696 100.632 222.64 100.328 223.792 100.328C224.784 100.328 225.6 100.56 226.24 101.024C226.272 100.08 226.136 99.384 225.832 98.936C225.528 98.472 224.992 98.24 224.224 98.24C223.424 98.24 222.48 98.488 221.392 98.984ZM224.152 104.816C225.08 104.816 225.776 104.488 226.24 103.832V102.728C225.776 102.376 225.144 102.2 224.344 102.2C223.848 102.2 223.432 102.32 223.096 102.56C222.776 102.784 222.616 103.112 222.616 103.544C222.616 103.944 222.76 104.256 223.048 104.48C223.336 104.704 223.704 104.816 224.152 104.816ZM230.533 98.96V96.2H240.373V98.96H236.845V107H234.085V98.96H230.533ZM242.349 107V96.2H245.109V99.152H246.597C248.293 99.152 249.509 99.504 250.245 100.208C250.981 100.912 251.349 101.808 251.349 102.896C251.349 104.064 250.949 105.04 250.149 105.824C249.349 106.608 248.093 107 246.381 107H242.349ZM246.357 101.36H245.109V104.6H246.333C247.725 104.6 248.421 104.064 248.421 102.992C248.421 101.904 247.733 101.36 246.357 101.36ZM257.605 101.72V99.152H263.653V101.72H257.605Z" fill="white"/>
</g>
<g filter="url(#filter6_d_53_17)">
<path d="M98.56 139V131.965H96.061L95.998 132.973C95.844 134.667 95.585 135.969 95.221 136.879C94.871 137.789 94.423 138.405 93.877 138.727C93.345 139.035 92.631 139.189 91.735 139.189L91.525 136.837C91.833 136.865 92.12 136.781 92.386 136.585C92.666 136.375 92.932 135.927 93.184 135.241C93.436 134.541 93.597 133.624 93.667 132.49L93.814 129.55H100.975V139H98.56ZM111.077 136.354L111.77 138.055C110.846 138.839 109.642 139.231 108.158 139.231C106.632 139.231 105.4 138.776 104.462 137.866C103.538 136.956 103.076 135.759 103.076 134.275C103.076 132.861 103.531 131.685 104.441 130.747C105.351 129.795 106.562 129.319 108.074 129.319C109.32 129.319 110.377 129.732 111.245 130.558C112.113 131.37 112.547 132.42 112.547 133.708C112.547 134.24 112.498 134.674 112.4 135.01H105.575C105.673 135.71 105.981 136.256 106.499 136.648C107.017 137.026 107.654 137.215 108.41 137.215C109.474 137.215 110.363 136.928 111.077 136.354ZM107.969 131.335C106.597 131.335 105.771 132.021 105.491 133.393H110.132C110.146 132.805 109.957 132.315 109.565 131.923C109.173 131.531 108.641 131.335 107.969 131.335ZM114.492 139V129.55H120.834V131.818H116.907V139H114.492ZM131.293 129.55L127.66 134.044L131.734 139H128.584L124.846 134.233L128.248 129.55H131.293ZM122.347 139V129.55H124.762V139H122.347ZM133.399 137.845C132.461 136.907 131.992 135.717 131.992 134.275C131.992 132.833 132.461 131.65 133.399 130.726C134.351 129.788 135.597 129.319 137.137 129.319C138.677 129.319 139.916 129.788 140.854 130.726C141.806 131.65 142.282 132.833 142.282 134.275C142.282 135.717 141.806 136.907 140.854 137.845C139.916 138.769 138.677 139.231 137.137 139.231C135.597 139.231 134.351 138.769 133.399 137.845ZM134.575 134.275C134.575 135.059 134.813 135.71 135.289 136.228C135.779 136.732 136.395 136.984 137.137 136.984C137.893 136.984 138.509 136.739 138.985 136.249C139.475 135.745 139.72 135.087 139.72 134.275C139.72 133.491 139.475 132.847 138.985 132.343C138.495 131.839 137.879 131.587 137.137 131.587C136.409 131.587 135.8 131.839 135.31 132.343C134.82 132.833 134.575 133.477 134.575 134.275ZM151.238 139H148.823V129.55H151.238V135.535L155.648 129.55H158.063V139H155.648V133.015L151.238 139ZM171.655 139V131.818H167.623V139H165.208V129.55H174.07V139H171.655ZM176.754 143.2V129.55H179.169V130.453C179.477 130.131 179.89 129.865 180.408 129.655C180.94 129.431 181.5 129.319 182.088 129.319C183.376 129.319 184.412 129.767 185.196 130.663C185.98 131.559 186.372 132.714 186.372 134.128C186.372 135.598 185.91 136.816 184.986 137.782C184.062 138.748 182.858 139.231 181.374 139.231C180.436 139.231 179.701 139.077 179.169 138.769V143.2H176.754ZM181.332 131.587C180.506 131.587 179.785 131.93 179.169 132.616V136.438C179.729 136.802 180.394 136.984 181.164 136.984C181.976 136.984 182.62 136.725 183.096 136.207C183.572 135.675 183.81 135.003 183.81 134.191C183.81 133.421 183.593 132.798 183.159 132.322C182.725 131.832 182.116 131.587 181.332 131.587ZM189.283 137.845C188.345 136.907 187.876 135.717 187.876 134.275C187.876 132.833 188.345 131.65 189.283 130.726C190.235 129.788 191.481 129.319 193.021 129.319C194.561 129.319 195.8 129.788 196.738 130.726C197.69 131.65 198.166 132.833 198.166 134.275C198.166 135.717 197.69 136.907 196.738 137.845C195.8 138.769 194.561 139.231 193.021 139.231C191.481 139.231 190.235 138.769 189.283 137.845ZM190.459 134.275C190.459 135.059 190.697 135.71 191.173 136.228C191.663 136.732 192.279 136.984 193.021 136.984C193.777 136.984 194.393 136.739 194.869 136.249C195.359 135.745 195.604 135.087 195.604 134.275C195.604 133.491 195.359 132.847 194.869 132.343C194.379 131.839 193.763 131.587 193.021 131.587C192.293 131.587 191.684 131.839 191.194 132.343C190.704 132.833 190.459 133.477 190.459 134.275ZM207.417 135.829L208.551 137.593C208.159 138.125 207.627 138.531 206.955 138.811C206.297 139.091 205.576 139.231 204.792 139.231C203.252 139.231 202.013 138.776 201.075 137.866C200.137 136.956 199.668 135.759 199.668 134.275C199.668 132.875 200.13 131.699 201.054 130.747C201.978 129.795 203.147 129.319 204.561 129.319C206.241 129.319 207.508 129.746 208.362 130.6L207.228 132.511C206.598 131.895 205.814 131.587 204.876 131.587C204.176 131.587 203.56 131.839 203.028 132.343C202.51 132.833 202.251 133.477 202.251 134.275C202.251 135.087 202.517 135.745 203.049 136.249C203.595 136.739 204.239 136.984 204.981 136.984C205.905 136.984 206.717 136.599 207.417 135.829ZM209.318 131.965V129.55H217.928V131.965H214.841V139H212.426V131.965H209.318ZM220.188 137.845C219.25 136.907 218.781 135.717 218.781 134.275C218.781 132.833 219.25 131.65 220.188 130.726C221.14 129.788 222.386 129.319 223.926 129.319C225.466 129.319 226.705 129.788 227.643 130.726C228.595 131.65 229.071 132.833 229.071 134.275C229.071 135.717 228.595 136.907 227.643 137.845C226.705 138.769 225.466 139.231 223.926 139.231C222.386 139.231 221.14 138.769 220.188 137.845ZM221.364 134.275C221.364 135.059 221.602 135.71 222.078 136.228C222.568 136.732 223.184 136.984 223.926 136.984C224.682 136.984 225.298 136.739 225.774 136.249C226.264 135.745 226.509 135.087 226.509 134.275C226.509 133.491 226.264 132.847 225.774 132.343C225.284 131.839 224.668 131.587 223.926 131.587C223.198 131.587 222.589 131.839 222.099 132.343C221.609 132.833 221.364 133.477 221.364 134.275ZM231.791 133.918V124.3H234.353V133.918H231.791ZM231.455 137.425C231.455 137.033 231.609 136.676 231.917 136.354C232.225 136.032 232.631 135.871 233.135 135.871C233.569 135.871 233.933 136.032 234.227 136.354C234.521 136.676 234.668 137.033 234.668 137.425C234.668 137.873 234.521 138.265 234.227 138.601C233.933 138.937 233.569 139.105 233.135 139.105C232.631 139.105 232.225 138.937 231.917 138.601C231.609 138.265 231.455 137.873 231.455 137.425Z" fill="white"/>
</g>
<g filter="url(#filter7_d_53_17)">
<path d="M260 189H290M290 189L276.957 180M290 189L276.957 198" stroke="white" stroke-width="1.5" stroke-linejoin="round"/>
</g>
<defs>
<filter id="filter0_f_53_17" x="0" y="-2.28882e-05" width="241" height="241" filterUnits="userSpaceOnUse" color-interpolation-filters="sRGB">
<feFlood flood-opacity="0" result="BackgroundImageFix"/>
<feBlend mode="normal" in="SourceGraphic" in2="BackgroundImageFix" result="shape"/>
<feGaussianBlur stdDeviation="45" result="effect1_foregroundBlur_53_17"/>
</filter>
<filter id="filter1_b_53_17" x="58" y="57" width="267" height="178" filterUnits="userSpaceOnUse" color-interpolation-filters="sRGB">
<feFlood flood-opacity="0" result="BackgroundImageFix"/>
<feGaussianBlur in="BackgroundImageFix" stdDeviation="9"/>
<feComposite in2="SourceAlpha" operator="in" result="effect1_backgroundBlur_53_17"/>
<feBlend mode="normal" in="SourceGraphic" in2="effect1_backgroundBlur_53_17" result="shape"/>
</filter>
<filter id="filter2_b_53_17" x="58" y="101" width="267" height="134" filterUnits="userSpaceOnUse" color-interpolation-filters="sRGB">
<feFlood flood-opacity="0" result="BackgroundImageFix"/>
<feGaussianBlur in="BackgroundImageFix" stdDeviation="9"/>
<feComposite in2="SourceAlpha" operator="in" result="effect1_backgroundBlur_53_17"/>
<feBlend mode="normal" in="SourceGraphic" in2="effect1_backgroundBlur_53_17" result="shape"/>
</filter>
<filter id="filter3_d_53_17" x="76.255" y="143.93" width="198.457" height="44.552" filterUnits="userSpaceOnUse" color-interpolation-filters="sRGB">
<feFlood flood-opacity="0" result="BackgroundImageFix"/>
<feColorMatrix in="SourceAlpha" type="matrix" values="0 0 0 0 0 0 0 0 0 0 0 0 0 0 0 0 0 0 127 0" result="hardAlpha"/>
<feOffset/>
<feGaussianBlur stdDeviation="7.5"/>
<feComposite in2="hardAlpha" operator="out"/>
<feColorMatrix type="matrix" values="0 0 0 0 1 0 0 0 0 1 0 0 0 0 1 0 0 0 0.3 0"/>
<feBlend mode="normal" in2="BackgroundImageFix" result="effect1_dropShadow_53_17"/>
<feBlend mode="normal" in="SourceGraphic" in2="effect1_dropShadow_53_17" result="shape"/>
</filter>
<filter id="filter4_d_53_17" x="79.224" y="170.18" width="143.242" height="39.69" filterUnits="userSpaceOnUse" color-interpolation-filters="sRGB">
<feFlood flood-opacity="0" result="BackgroundImageFix"/>
<feColorMatrix in="SourceAlpha" type="matrix" values="0 0 0 0 0 0 0 0 0 0 0 0 0 0 0 0 0 0 127 0" result="hardAlpha"/>
<feOffset/>
<feGaussianBlur stdDeviation="7.5"/>
<feComposite in2="hardAlpha" operator="out"/>
<feColorMatrix type="matrix" values="0 0 0 0 1 0 0 0 0 1 0 0 0 0 1 0 0 0 0.3 0"/>
<feBlend mode="normal" in2="BackgroundImageFix" result="effect1_dropShadow_53_17"/>
<feBlend mode="normal" in="SourceGraphic" in2="effect1_dropShadow_53_17" result="shape"/>
</filter>
<filter id="filter5_d_53_17" x="73.84" y="74.936" width="204.813" height="51.864" filterUnits="userSpaceOnUse" color-interpolation-filters="sRGB">
<feFlood flood-opacity="0" result="BackgroundImageFix"/>
<feColorMatrix in="SourceAlpha" type="matrix" values="0 0 0 0 0 0 0 0 0 0 0 0 0 0 0 0 0 0 127 0" result="hardAlpha"/>
<feOffset/>
<feGaussianBlur stdDeviation="7.5"/>
<feComposite in2="hardAlpha" operator="out"/>
<feColorMatrix type="matrix" values="0 0 0 0 1 0 0 0 0 1 0 0 0 0 1 0 0 0 0.3 0"/>
<feBlend mode="normal" in2="BackgroundImageFix" result="effect1_dropShadow_53_17"/>
<feBlend mode="normal" in="SourceGraphic" in2="effect1_dropShadow_53_17" result="shape"/>
</filter>
<filter id="filter6_d_53_17" x="76.525" y="109.3" width="173.143" height="48.9" filterUnits="userSpaceOnUse" color-interpolation-filters="sRGB">
<feFlood flood-opacity="0" result="BackgroundImageFix"/>
<feColorMatrix in="SourceAlpha" type="matrix" values="0 0 0 0 0 0 0 0 0 0 0 0 0 0 0 0 0 0 127 0" result="hardAlpha"/>
<feOffset/>
<feGaussianBlur stdDeviation="7.5"/>
<feComposite in2="hardAlpha" operator="out"/>
<feColorMatrix type="matrix" values="0 0 0 0 1 0 0 0 0 1 0 0 0 0 1 0 0 0 0.3 0"/>
<feBlend mode="normal" in2="BackgroundImageFix" result="effect1_dropShadow_53_17"/>
<feBlend mode="normal" in="SourceGraphic" in2="effect1_dropShadow_53_17" result="shape"/>
</filter>
<filter id="filter7_d_53_17" x="245" y="164.383" width="60.75" height="49.2346" filterUnits="userSpaceOnUse" color-interpolation-filters="sRGB">
<feFlood flood-opacity="0" result="BackgroundImageFix"/>
<feColorMatrix in="SourceAlpha" type="matrix" values="0 0 0 0 0 0 0 0 0 0 0 0 0 0 0 0 0 0 127 0" result="hardAlpha"/>
<feOffset/>
<feGaussianBlur stdDeviation="7.5"/>
<feComposite in2="hardAlpha" operator="out"/>
<feColorMatrix type="matrix" values="0 0 0 0 1 0 0 0 0 1 0 0 0 0 1 0 0 0 0.3 0"/>
<feBlend mode="normal" in2="BackgroundImageFix" result="effect1_dropShadow_53_17"/>
<feBlend mode="normal" in="SourceGraphic" in2="effect1_dropShadow_53_17" result="shape"/>
</filter>
</defs>
</svg>
