<svg width="319" height="241" viewBox="0 0 319 241" fill="none" xmlns="http://www.w3.org/2000/svg">
<g filter="url(#filter0_f_53_28)">
<ellipse cx="198.5" cy="120.5" rx="30.5" ry="30.5" fill="#193269"/>
</g>
<g filter="url(#filter1_b_53_28)">
<rect x="2" y="85" width="231" height="142" rx="15" fill="#779ECB" fill-opacity="0.31"/>
</g>
<g filter="url(#filter2_b_53_28)">
<rect x="2" y="129" width="231" height="98" rx="15" fill="white" fill-opacity="0.2"/>
</g>
<g filter="url(#filter3_d_53_28)">
<path d="M29.067 169.1L24.953 178.28C24.5337 179.221 24.0917 179.912 23.627 180.354C23.1737 180.785 22.6297 181 21.995 181C21.3943 181 20.9127 180.858 20.55 180.575L21.06 179.351C21.3547 179.555 21.6607 179.657 21.978 179.657C22.5673 179.657 23.0547 179.255 23.44 178.45L23.644 178.008L18.255 169.1H19.887L24.341 176.563L27.605 169.1H29.067ZM31.6847 181.17C31.0954 181.17 30.4834 181.074 29.8487 180.881C29.2141 180.677 28.7721 180.428 28.5227 180.133L29.2197 179.113C29.5257 179.362 29.8884 179.566 30.3077 179.725C30.7384 179.872 31.1294 179.946 31.4807 179.946C32.0701 179.946 32.5517 179.833 32.9257 179.606C33.2997 179.368 33.4867 179.062 33.4867 178.688C33.4867 178.371 33.3507 178.127 33.0787 177.957C32.8181 177.787 32.4554 177.702 31.9907 177.702H30.6987V176.597H31.9057C32.2911 176.597 32.6084 176.495 32.8577 176.291C33.1071 176.076 33.2317 175.815 33.2317 175.509C33.2317 175.169 33.0844 174.903 32.7897 174.71C32.4951 174.506 32.0984 174.404 31.5997 174.404C30.7837 174.404 30.0187 174.687 29.3047 175.254L28.7777 174.2C29.0837 173.883 29.5087 173.633 30.0527 173.452C30.6081 173.271 31.1917 173.18 31.8037 173.18C32.7217 173.18 33.4301 173.367 33.9287 173.741C34.4274 174.104 34.6767 174.602 34.6767 175.237C34.6767 176.121 34.2291 176.722 33.3337 177.039V177.073C33.8437 177.13 34.2347 177.328 34.5067 177.668C34.7901 178.008 34.9317 178.41 34.9317 178.875C34.9317 179.578 34.6314 180.139 34.0307 180.558C33.4301 180.966 32.6481 181.17 31.6847 181.17ZM42.6143 181V177.77H38.3643V181H37.0043V173.35H38.3643V176.495H42.6143V173.35H43.9743V181H42.6143ZM46.842 174.965L46.485 173.877C47.233 173.412 48.083 173.18 49.035 173.18C50.089 173.18 50.8426 173.441 51.296 173.962C51.7493 174.483 51.976 175.265 51.976 176.308V181H50.684V180.014C50.0946 180.751 49.2786 181.119 48.236 181.119C47.5333 181.119 46.9666 180.909 46.536 180.49C46.1053 180.059 45.89 179.481 45.89 178.756C45.89 177.997 46.1563 177.402 46.689 176.971C47.233 176.54 47.93 176.325 48.78 176.325C49.596 176.325 50.2306 176.489 50.684 176.818C50.684 176.002 50.5706 175.396 50.344 174.999C50.1173 174.602 49.6526 174.404 48.95 174.404C48.2586 174.404 47.556 174.591 46.842 174.965ZM48.712 179.895C49.4713 179.895 50.1286 179.566 50.684 178.909V177.94C50.208 177.6 49.6356 177.43 48.967 177.43C48.5136 177.43 48.1283 177.538 47.811 177.753C47.4936 177.968 47.335 178.28 47.335 178.688C47.335 179.062 47.454 179.357 47.692 179.572C47.9413 179.787 48.2813 179.895 48.712 179.895ZM55.6133 181H54.2533V173.35H55.6133V179.045L60.0333 173.35H61.3933V181H60.0333V175.305L55.6133 181ZM55.3413 169.44H56.6163C56.6843 170.335 57.1206 170.783 57.9253 170.783C58.6846 170.783 59.0983 170.335 59.1663 169.44H60.4413C60.4413 170.12 60.209 170.687 59.7443 171.14C59.2796 171.593 58.6733 171.82 57.9253 171.82C57.1093 171.82 56.4746 171.599 56.0213 171.157C55.568 170.715 55.3413 170.143 55.3413 169.44ZM62.8966 174.71V173.35H69.8666V174.71H67.0616V181H65.7016V174.71H62.8966ZM77.1389 179.096L77.5639 180.167C76.8272 180.836 75.8695 181.17 74.6909 181.17C73.4555 181.17 72.4639 180.807 71.7159 180.082C70.9679 179.357 70.5939 178.388 70.5939 177.175C70.5939 176.019 70.9452 175.067 71.6479 174.319C72.3505 173.56 73.3139 173.18 74.5379 173.18C75.5465 173.18 76.3909 173.509 77.0709 174.166C77.7509 174.812 78.0909 175.651 78.0909 176.682C78.0909 177.033 78.0625 177.339 78.0059 177.6H72.1239C72.1805 178.314 72.4469 178.875 72.9229 179.283C73.4102 179.691 74.0335 179.895 74.7929 179.895C75.7902 179.895 76.5722 179.629 77.1389 179.096ZM74.4699 174.455C73.7899 174.455 73.2345 174.648 72.8039 175.033C72.3732 175.407 72.1182 175.894 72.0389 176.495H76.6799C76.6459 175.86 76.4305 175.362 76.0339 174.999C75.6485 174.636 75.1272 174.455 74.4699 174.455ZM89.6703 168.93L90.4013 170.001C90.1293 170.375 89.8006 170.63 89.4153 170.766C89.0299 170.902 88.5539 171.015 87.9873 171.106C87.4206 171.197 86.9276 171.338 86.5083 171.531C85.3523 172.052 84.7063 173.282 84.5703 175.22H84.6043C84.8536 174.687 85.2559 174.257 85.8113 173.928C86.3779 173.599 86.9843 173.435 87.6303 173.435C88.7183 173.435 89.5796 173.781 90.2143 174.472C90.8603 175.163 91.1833 176.087 91.1833 177.243C91.1833 178.331 90.8149 179.26 90.0783 180.031C89.3416 180.79 88.4009 181.17 87.2563 181.17C86.0096 181.17 85.0236 180.745 84.2983 179.895C83.5729 179.045 83.2103 177.883 83.2103 176.41C83.2103 173.089 84.1566 171.032 86.0493 170.239C86.5139 170.035 87.0126 169.893 87.5453 169.814C88.0779 169.723 88.5086 169.627 88.8373 169.525C89.1659 169.423 89.4436 169.225 89.6703 168.93ZM84.6553 176.665C84.6553 177.64 84.8933 178.422 85.3693 179.011C85.8453 179.6 86.4629 179.895 87.2223 179.895C87.9589 179.895 88.5596 179.646 89.0243 179.147C89.5003 178.648 89.7383 178.036 89.7383 177.311C89.7383 176.54 89.5229 175.917 89.0923 175.441C88.6616 174.954 88.0609 174.71 87.2903 174.71C86.6103 174.71 86.0323 174.903 85.5563 175.288C85.0803 175.673 84.7799 176.132 84.6553 176.665ZM93.7462 180.048C92.9982 179.289 92.6242 178.331 92.6242 177.175C92.6242 176.019 92.9982 175.067 93.7462 174.319C94.5055 173.56 95.4915 173.18 96.7042 173.18C97.9168 173.18 98.8972 173.56 99.6452 174.319C100.404 175.067 100.784 176.019 100.784 177.175C100.784 178.331 100.404 179.289 99.6452 180.048C98.8972 180.796 97.9168 181.17 96.7042 181.17C95.4915 181.17 94.5055 180.796 93.7462 180.048ZM94.0692 177.175C94.0692 177.968 94.3128 178.62 94.8002 179.13C95.2988 179.64 95.9335 179.895 96.7042 179.895C97.4748 179.895 98.1038 179.646 98.5912 179.147C99.0898 178.637 99.3392 177.98 99.3392 177.175C99.3392 176.382 99.0898 175.73 98.5912 175.22C98.1038 174.71 97.4748 174.455 96.7042 174.455C95.9448 174.455 95.3158 174.71 94.8172 175.22C94.3185 175.719 94.0692 176.37 94.0692 177.175ZM107.684 181V174.71H104.998L104.913 176.002C104.845 176.852 104.743 177.589 104.607 178.212C104.471 178.824 104.312 179.317 104.131 179.691C103.961 180.054 103.751 180.343 103.502 180.558C103.252 180.773 102.997 180.921 102.737 181C102.476 181.068 102.176 181.102 101.836 181.102L101.734 179.776C101.87 179.787 102 179.77 102.125 179.725C102.261 179.668 102.408 179.555 102.567 179.385C102.737 179.215 102.884 178.988 103.009 178.705C103.145 178.422 103.264 178.025 103.366 177.515C103.479 176.994 103.553 176.399 103.587 175.73L103.723 173.35H109.044V181H107.684ZM111.495 181V173.35H112.855V175.645H114.249C115.337 175.645 116.114 175.894 116.578 176.393C117.043 176.88 117.275 177.509 117.275 178.28C117.275 179.051 117.02 179.697 116.51 180.218C116 180.739 115.19 181 114.079 181H111.495ZM113.994 176.92H112.855V179.725H113.977C115.213 179.725 115.83 179.26 115.83 178.331C115.83 177.39 115.218 176.92 113.994 176.92ZM119.099 181V173.35H120.459V179.725H123.264V173.35H124.624V179.725H127.429V173.35H128.789V181H119.099ZM137.286 179.096L137.711 180.167C136.975 180.836 136.017 181.17 134.838 181.17C133.603 181.17 132.611 180.807 131.863 180.082C131.115 179.357 130.741 178.388 130.741 177.175C130.741 176.019 131.093 175.067 131.795 174.319C132.498 173.56 133.461 173.18 134.685 173.18C135.694 173.18 136.538 173.509 137.218 174.166C137.898 174.812 138.238 175.651 138.238 176.682C138.238 177.033 138.21 177.339 138.153 177.6H132.271C132.328 178.314 132.594 178.875 133.07 179.283C133.558 179.691 134.181 179.895 134.94 179.895C135.938 179.895 136.72 179.629 137.286 179.096ZM134.617 174.455C133.937 174.455 133.382 174.648 132.951 175.033C132.521 175.407 132.266 175.894 132.186 176.495H136.827C136.793 175.86 136.578 175.362 136.181 174.999C135.796 174.636 135.275 174.455 134.617 174.455ZM144.514 180.048C143.766 179.289 143.392 178.331 143.392 177.175C143.392 176.019 143.766 175.067 144.514 174.319C145.273 173.56 146.259 173.18 147.472 173.18C148.684 173.18 149.665 173.56 150.413 174.319C151.172 175.067 151.552 176.019 151.552 177.175C151.552 178.331 151.172 179.289 150.413 180.048C149.665 180.796 148.684 181.17 147.472 181.17C146.259 181.17 145.273 180.796 144.514 180.048ZM144.837 177.175C144.837 177.968 145.08 178.62 145.568 179.13C146.066 179.64 146.701 179.895 147.472 179.895C148.242 179.895 148.871 179.646 149.359 179.147C149.857 178.637 150.107 177.98 150.107 177.175C150.107 176.382 149.857 175.73 149.359 175.22C148.871 174.71 148.242 174.455 147.472 174.455C146.712 174.455 146.083 174.71 145.585 175.22C145.086 175.719 144.837 176.37 144.837 177.175ZM156.363 174.71V173.35H163.333V174.71H160.528V181H159.168V174.71H156.363ZM165.183 180.048C164.435 179.289 164.061 178.331 164.061 177.175C164.061 176.019 164.435 175.067 165.183 174.319C165.942 173.56 166.928 173.18 168.141 173.18C169.353 173.18 170.334 173.56 171.082 174.319C171.841 175.067 172.221 176.019 172.221 177.175C172.221 178.331 171.841 179.289 171.082 180.048C170.334 180.796 169.353 181.17 168.141 181.17C166.928 181.17 165.942 180.796 165.183 180.048ZM165.506 177.175C165.506 177.968 165.749 178.62 166.237 179.13C166.735 179.64 167.37 179.895 168.141 179.895C168.911 179.895 169.54 179.646 170.028 179.147C170.526 178.637 170.776 177.98 170.776 177.175C170.776 176.382 170.526 175.73 170.028 175.22C169.54 174.71 168.911 174.455 168.141 174.455C167.381 174.455 166.752 174.71 166.254 175.22C165.755 175.719 165.506 176.37 165.506 177.175ZM174.183 181V173.35H175.424L178.365 177.141L181.153 173.35H182.36V181H181V175.424L178.348 178.977H178.297L175.543 175.424V181H174.183ZM184.519 180.218C184.519 179.946 184.604 179.731 184.774 179.572C184.944 179.402 185.182 179.317 185.488 179.317C185.85 179.317 186.145 179.47 186.372 179.776C186.598 180.071 186.712 180.467 186.712 180.966C186.712 181.589 186.542 182.122 186.202 182.564C185.862 183.006 185.408 183.312 184.842 183.482L184.468 182.836C185.057 182.643 185.42 182.264 185.556 181.697C185.646 181.312 185.641 181.028 185.539 180.847C185.471 180.949 185.346 181 185.165 181C184.995 181 184.842 180.926 184.706 180.779C184.581 180.62 184.519 180.433 184.519 180.218Z" fill="white"/>
</g>
<g filter="url(#filter4_d_53_28)">
<path d="M21.836 202.048C21.088 201.289 20.714 200.331 20.714 199.175C20.714 198.019 21.088 197.067 21.836 196.319C22.5953 195.56 23.5813 195.18 24.794 195.18C26.0067 195.18 26.987 195.56 27.735 196.319C28.4943 197.067 28.874 198.019 28.874 199.175C28.874 200.331 28.4943 201.289 27.735 202.048C26.987 202.796 26.0067 203.17 24.794 203.17C23.5813 203.17 22.5953 202.796 21.836 202.048ZM22.159 199.175C22.159 199.968 22.4027 200.62 22.89 201.13C23.3887 201.64 24.0233 201.895 24.794 201.895C25.5647 201.895 26.1937 201.646 26.681 201.147C27.1797 200.637 27.429 199.98 27.429 199.175C27.429 198.382 27.1797 197.73 26.681 197.22C26.1937 196.71 25.5647 196.455 24.794 196.455C24.0347 196.455 23.4057 196.71 22.907 197.22C22.4083 197.719 22.159 198.37 22.159 199.175ZM40.2647 203V199.77H36.0147V203H34.6547V195.35H36.0147V198.495H40.2647V195.35H41.6247V203H40.2647ZM44.4924 196.965L44.1354 195.877C44.8834 195.412 45.7334 195.18 46.6854 195.18C47.7394 195.18 48.493 195.441 48.9464 195.962C49.3997 196.483 49.6264 197.265 49.6264 198.308V203H48.3344V202.014C47.745 202.751 46.929 203.119 45.8864 203.119C45.1837 203.119 44.617 202.909 44.1864 202.49C43.7557 202.059 43.5404 201.481 43.5404 200.756C43.5404 199.997 43.8067 199.402 44.3394 198.971C44.8834 198.54 45.5804 198.325 46.4304 198.325C47.2464 198.325 47.881 198.489 48.3344 198.818C48.3344 198.002 48.221 197.396 47.9944 196.999C47.7677 196.602 47.303 196.404 46.6004 196.404C45.909 196.404 45.2064 196.591 44.4924 196.965ZM46.3624 201.895C47.1217 201.895 47.779 201.566 48.3344 200.909V199.94C47.8584 199.6 47.286 199.43 46.6174 199.43C46.164 199.43 45.7787 199.538 45.4614 199.753C45.144 199.968 44.9854 200.28 44.9854 200.688C44.9854 201.062 45.1044 201.357 45.3424 201.572C45.5917 201.787 45.9317 201.895 46.3624 201.895ZM51.9037 203V195.35H53.2637V201.725H56.0687V195.35H57.4287V201.725H60.2337V195.35H61.5937V203H51.9037ZM70.091 201.096L70.516 202.167C69.7794 202.836 68.8217 203.17 67.643 203.17C66.4077 203.17 65.416 202.807 64.668 202.082C63.92 201.357 63.546 200.388 63.546 199.175C63.546 198.019 63.8974 197.067 64.6 196.319C65.3027 195.56 66.266 195.18 67.49 195.18C68.4987 195.18 69.343 195.509 70.023 196.166C70.703 196.812 71.043 197.651 71.043 198.682C71.043 199.033 71.0147 199.339 70.958 199.6H65.076C65.1327 200.314 65.399 200.875 65.875 201.283C66.3624 201.691 66.9857 201.895 67.745 201.895C68.7424 201.895 69.5244 201.629 70.091 201.096ZM67.422 196.455C66.742 196.455 66.1867 196.648 65.756 197.033C65.3254 197.407 65.0704 197.894 64.991 198.495H69.632C69.598 197.86 69.3827 197.362 68.986 196.999C68.6007 196.636 68.0794 196.455 67.422 196.455ZM74.2481 203H72.8881V195.35H74.2481V201.045L78.6681 195.35H80.0281V203H78.6681V197.305L74.2481 203ZM73.9761 191.44H75.2511C75.3191 192.335 75.7554 192.783 76.5601 192.783C77.3194 192.783 77.7331 192.335 77.8011 191.44H79.0761C79.0761 192.12 78.8437 192.687 78.3791 193.14C77.9144 193.593 77.3081 193.82 76.5601 193.82C75.7441 193.82 75.1094 193.599 74.6561 193.157C74.2027 192.715 73.9761 192.143 73.9761 191.44ZM91.8437 203V196.625H87.6787V203H86.3187V195.35H93.2037V203H91.8437ZM95.6654 206.4V195.35H97.0254V196.251C97.2974 195.934 97.6657 195.679 98.1304 195.486C98.6064 195.282 99.1051 195.18 99.6264 195.18C100.703 195.18 101.559 195.543 102.193 196.268C102.839 196.982 103.162 197.911 103.162 199.056C103.162 200.235 102.794 201.215 102.057 201.997C101.321 202.779 100.363 203.17 99.1844 203.17C98.2777 203.17 97.5581 202.994 97.0254 202.643V206.4H95.6654ZM99.2354 196.455C98.3287 196.455 97.5921 196.806 97.0254 197.509V201.3C97.6147 201.697 98.2947 201.895 99.0654 201.895C99.8701 201.895 100.51 201.634 100.986 201.113C101.474 200.592 101.717 199.923 101.717 199.107C101.717 198.314 101.496 197.673 101.054 197.186C100.612 196.699 100.006 196.455 99.2354 196.455ZM105.724 202.048C104.976 201.289 104.602 200.331 104.602 199.175C104.602 198.019 104.976 197.067 105.724 196.319C106.483 195.56 107.469 195.18 108.682 195.18C109.894 195.18 110.875 195.56 111.623 196.319C112.382 197.067 112.762 198.019 112.762 199.175C112.762 200.331 112.382 201.289 111.623 202.048C110.875 202.796 109.894 203.17 108.682 203.17C107.469 203.17 106.483 202.796 105.724 202.048ZM106.047 199.175C106.047 199.968 106.29 200.62 106.778 201.13C107.276 201.64 107.911 201.895 108.682 201.895C109.452 201.895 110.081 201.646 110.569 201.147C111.067 200.637 111.317 199.98 111.317 199.175C111.317 198.382 111.067 197.73 110.569 197.22C110.081 196.71 109.452 196.455 108.682 196.455C107.922 196.455 107.293 196.71 106.795 197.22C106.296 197.719 106.047 198.37 106.047 199.175ZM113.371 204.87V201.725H114.323C114.595 201.385 114.839 200.824 115.054 200.042C115.281 199.26 115.428 198.37 115.496 197.373L115.615 195.35H120.834V201.725H122.109V204.87H120.834V203H114.646V204.87H113.371ZM116.805 197.9C116.726 198.795 116.584 199.589 116.38 200.28C116.176 200.971 115.972 201.453 115.768 201.725H119.474V196.625H116.89L116.805 197.9ZM130.542 195.35L127.482 203C126.938 204.326 126.457 205.221 126.037 205.686C125.618 206.162 125.125 206.4 124.558 206.4C124.071 206.4 123.589 206.241 123.113 205.924L123.555 204.887C123.918 205.057 124.201 205.142 124.405 205.142C124.723 205.142 125.006 205.006 125.255 204.734C125.516 204.462 125.777 204.02 126.037 203.408L126.207 203L122.535 195.35H124.167L126.411 200.212C126.457 200.314 126.61 200.699 126.87 201.368C126.972 200.994 127.091 200.603 127.227 200.195L128.995 195.35H130.542ZM138.638 195.35L135.289 199.005L138.961 203H137.074L133.623 199.09L136.853 195.35H138.638ZM131.94 203V195.35H133.3V203H131.94ZM140.407 203V195.35H141.767V201.725H145.847V195.35H147.207V201.725H148.482V204.87H147.207V203H140.407ZM151.313 203H149.953V195.35H151.313V201.045L155.733 195.35H157.093V203H155.733V197.305L151.313 203ZM160.925 203H159.565V195.35H160.925V201.045L165.345 195.35H166.705V203H165.345V197.305L160.925 203Z" fill="white"/>
</g>
<g filter="url(#filter5_d_53_28)">
<path d="M31.104 97.2L25.392 110.088C24.8 111.416 24.144 112.4 23.424 113.04C22.704 113.68 21.84 114 20.832 114C19.856 114 19.088 113.776 18.528 113.328L19.56 110.832C19.96 111.104 20.376 111.24 20.808 111.24C21.544 111.24 22.096 110.848 22.464 110.064L22.704 109.488L15.288 97.2H18.624L24.12 106.584L28.128 97.2H31.104ZM34.5551 114.264C33.6111 114.264 32.6911 114.096 31.7951 113.76C30.8991 113.408 30.2511 112.976 29.8511 112.464L31.2671 110.736C31.5871 111.104 32.0431 111.416 32.6351 111.672C33.2431 111.928 33.8031 112.056 34.3151 112.056C35.0191 112.056 35.5631 111.936 35.9471 111.696C36.3311 111.456 36.5231 111.136 36.5231 110.736C36.5231 110.368 36.3791 110.072 36.0911 109.848C35.8031 109.624 35.4031 109.512 34.8911 109.512H32.8751V107.664H34.7711C35.2031 107.664 35.5471 107.536 35.8031 107.28C36.0751 107.024 36.2111 106.712 36.2111 106.344C36.2111 105.56 35.5791 105.168 34.3151 105.168C33.3231 105.168 32.3391 105.584 31.3631 106.416L30.2111 104.76C31.2511 103.544 32.7951 102.936 34.8431 102.936C36.2511 102.936 37.3231 103.208 38.0591 103.752C38.7951 104.296 39.1631 105.048 39.1631 106.008C39.1631 106.536 38.9871 107.016 38.6351 107.448C38.2831 107.88 37.7951 108.2 37.1711 108.408V108.456C37.9071 108.6 38.4671 108.904 38.8511 109.368C39.2511 109.816 39.4511 110.36 39.4511 111C39.4511 112.008 39.0031 112.808 38.1071 113.4C37.2111 113.976 36.0271 114.264 34.5551 114.264ZM49.5474 114V109.872H44.8194V114H42.0594V103.2H44.8194V107.28H49.5474V103.2H52.3074V114H49.5474ZM56.2119 105.984L55.5159 103.968C56.6839 103.28 57.9559 102.936 59.3319 102.936C60.8679 102.936 61.9719 103.312 62.6439 104.064C63.3159 104.816 63.6519 105.936 63.6519 107.424V114H61.2519V112.752C60.5959 113.68 59.5319 114.144 58.0599 114.144C57.0519 114.144 56.2359 113.848 55.6119 113.256C54.9879 112.664 54.6759 111.856 54.6759 110.832C54.6759 109.696 55.0439 108.832 55.7799 108.24C56.5159 107.632 57.4599 107.328 58.6119 107.328C59.6039 107.328 60.4199 107.56 61.0599 108.024C61.0919 107.08 60.9559 106.384 60.6519 105.936C60.3479 105.472 59.8119 105.24 59.0439 105.24C58.2439 105.24 57.2999 105.488 56.2119 105.984ZM58.9719 111.816C59.8999 111.816 60.5959 111.488 61.0599 110.832V109.728C60.5959 109.376 59.9639 109.2 59.1639 109.2C58.6679 109.2 58.2519 109.32 57.9159 109.56C57.5959 109.784 57.4359 110.112 57.4359 110.544C57.4359 110.944 57.5799 111.256 57.8679 111.48C58.1559 111.704 58.5239 111.816 58.9719 111.816ZM69.2413 114H66.4813V103.2H69.2413V110.04L74.2813 103.2H77.0413V114H74.2813V107.16L69.2413 114ZM68.0893 97.8H70.6093C70.6093 98.296 70.7053 98.712 70.8973 99.048C71.1053 99.384 71.4253 99.552 71.8573 99.552C72.2413 99.552 72.5293 99.384 72.7213 99.048C72.9133 98.712 73.0093 98.296 73.0093 97.8H75.5293C75.5293 98.888 75.2093 99.784 74.5693 100.488C73.9293 101.176 73.0253 101.52 71.8573 101.52C70.5773 101.52 69.6253 101.184 69.0013 100.512C68.3933 99.824 68.0893 98.92 68.0893 97.8ZM78.9939 105.96V103.2H88.8339V105.96H85.3059V114H82.5459V105.96H78.9939ZM98.9533 110.976L99.7453 112.92C98.6893 113.816 97.3133 114.264 95.6173 114.264C93.8733 114.264 92.4653 113.744 91.3933 112.704C90.3373 111.664 89.8093 110.296 89.8093 108.6C89.8093 106.984 90.3293 105.64 91.3693 104.568C92.4093 103.48 93.7933 102.936 95.5213 102.936C96.9453 102.936 98.1533 103.408 99.1453 104.352C100.137 105.28 100.633 106.48 100.633 107.952C100.633 108.56 100.577 109.056 100.465 109.44H92.6653C92.7773 110.24 93.1293 110.864 93.7213 111.312C94.3133 111.744 95.0413 111.96 95.9053 111.96C97.1213 111.96 98.1373 111.632 98.9533 110.976ZM95.4013 105.24C93.8333 105.24 92.8893 106.024 92.5693 107.592H97.8733C97.8893 106.92 97.6733 106.36 97.2253 105.912C96.7773 105.464 96.1693 105.24 95.4013 105.24ZM116.054 96.936L117.494 99.192C117.078 99.688 116.598 100.04 116.054 100.248C115.51 100.44 114.87 100.616 114.134 100.776C113.414 100.92 112.79 101.12 112.262 101.376C110.918 102 110.142 103.344 109.934 105.408H109.982C110.318 104.816 110.838 104.336 111.542 103.968C112.246 103.584 112.99 103.392 113.774 103.392C115.262 103.392 116.454 103.872 117.35 104.832C118.246 105.792 118.694 107.08 118.694 108.696C118.694 110.248 118.166 111.568 117.11 112.656C116.054 113.728 114.694 114.264 113.03 114.264C111.222 114.264 109.79 113.648 108.734 112.416C107.694 111.184 107.174 109.52 107.174 107.424C107.174 102.8 108.534 99.904 111.254 98.736C111.862 98.48 112.518 98.288 113.222 98.16C113.926 98.016 114.486 97.872 114.902 97.728C115.334 97.584 115.718 97.32 116.054 96.936ZM110.126 108C110.142 109.072 110.406 109.96 110.918 110.664C111.43 111.352 112.11 111.696 112.958 111.696C113.806 111.696 114.478 111.424 114.974 110.88C115.486 110.32 115.742 109.632 115.742 108.816C115.742 107.984 115.51 107.304 115.046 106.776C114.582 106.232 113.926 105.96 113.078 105.96C112.342 105.96 111.71 106.152 111.182 106.536C110.67 106.92 110.318 107.408 110.126 108ZM122.027 112.68C120.955 111.608 120.419 110.248 120.419 108.6C120.419 106.952 120.955 105.6 122.027 104.544C123.115 103.472 124.539 102.936 126.299 102.936C128.059 102.936 129.475 103.472 130.547 104.544C131.635 105.6 132.179 106.952 132.179 108.6C132.179 110.248 131.635 111.608 130.547 112.68C129.475 113.736 128.059 114.264 126.299 114.264C124.539 114.264 123.115 113.736 122.027 112.68ZM123.371 108.6C123.371 109.496 123.643 110.24 124.187 110.832C124.747 111.408 125.451 111.696 126.299 111.696C127.163 111.696 127.867 111.416 128.411 110.856C128.971 110.28 129.251 109.528 129.251 108.6C129.251 107.704 128.971 106.968 128.411 106.392C127.851 105.816 127.147 105.528 126.299 105.528C125.467 105.528 124.771 105.816 124.211 106.392C123.651 106.952 123.371 107.688 123.371 108.6ZM141.32 114V105.96H138.464L138.392 107.112C138.216 109.048 137.92 110.536 137.504 111.576C137.104 112.616 136.592 113.32 135.968 113.688C135.36 114.04 134.544 114.216 133.52 114.216L133.28 111.528C133.632 111.56 133.96 111.464 134.264 111.24C134.584 111 134.888 110.488 135.176 109.704C135.464 108.904 135.648 107.856 135.728 106.56L135.896 103.2H144.08V114H141.32ZM147.153 114V103.2H149.913V106.152H151.401C153.097 106.152 154.313 106.504 155.049 107.208C155.785 107.912 156.153 108.808 156.153 109.896C156.153 111.064 155.753 112.04 154.953 112.824C154.153 113.608 152.897 114 151.185 114H147.153ZM151.161 108.36H149.913V111.6H151.137C152.529 111.6 153.225 111.064 153.225 109.992C153.225 108.904 152.537 108.36 151.161 108.36ZM158.356 114V103.2H161.116V111.432H164.164V103.2H166.924V111.432H169.996V103.2H172.756V114H158.356ZM184.289 110.976L185.081 112.92C184.025 113.816 182.649 114.264 180.953 114.264C179.209 114.264 177.801 113.744 176.729 112.704C175.673 111.664 175.145 110.296 175.145 108.6C175.145 106.984 175.665 105.64 176.705 104.568C177.745 103.48 179.129 102.936 180.857 102.936C182.281 102.936 183.489 103.408 184.481 104.352C185.473 105.28 185.969 106.48 185.969 107.952C185.969 108.56 185.913 109.056 185.801 109.44H178.001C178.113 110.24 178.465 110.864 179.057 111.312C179.649 111.744 180.377 111.96 181.241 111.96C182.457 111.96 183.473 111.632 184.289 110.976ZM180.737 105.24C179.169 105.24 178.225 106.024 177.905 107.592H183.209C183.225 106.92 183.009 106.36 182.561 105.912C182.113 105.464 181.505 105.24 180.737 105.24Z" fill="white"/>
</g>
<g filter="url(#filter6_d_53_28)">
<path d="M20.163 144.845C19.225 143.907 18.756 142.717 18.756 141.275C18.756 139.833 19.225 138.65 20.163 137.726C21.115 136.788 22.361 136.319 23.901 136.319C25.441 136.319 26.68 136.788 27.618 137.726C28.57 138.65 29.046 139.833 29.046 141.275C29.046 142.717 28.57 143.907 27.618 144.845C26.68 145.769 25.441 146.231 23.901 146.231C22.361 146.231 21.115 145.769 20.163 144.845ZM21.339 141.275C21.339 142.059 21.577 142.71 22.053 143.228C22.543 143.732 23.159 143.984 23.901 143.984C24.657 143.984 25.273 143.739 25.749 143.249C26.239 142.745 26.484 142.087 26.484 141.275C26.484 140.491 26.239 139.847 25.749 139.343C25.259 138.839 24.643 138.587 23.901 138.587C23.173 138.587 22.564 138.839 22.074 139.343C21.584 139.833 21.339 140.477 21.339 141.275ZM42.1382 146V142.388H38.0012V146H35.5862V136.55H38.0012V140.12H42.1382V136.55H44.5532V146H42.1382ZM47.9696 138.986L47.3606 137.222C48.3826 136.62 49.4956 136.319 50.6996 136.319C52.0436 136.319 53.0096 136.648 53.5976 137.306C54.1856 137.964 54.4796 138.944 54.4796 140.246V146H52.3796V144.908C51.8056 145.72 50.8746 146.126 49.5866 146.126C48.7046 146.126 47.9906 145.867 47.4446 145.349C46.8986 144.831 46.6256 144.124 46.6256 143.228C46.6256 142.234 46.9476 141.478 47.5916 140.96C48.2356 140.428 49.0616 140.162 50.0696 140.162C50.9376 140.162 51.6516 140.365 52.2116 140.771C52.2396 139.945 52.1206 139.336 51.8546 138.944C51.5886 138.538 51.1196 138.335 50.4476 138.335C49.7476 138.335 48.9216 138.552 47.9696 138.986ZM50.3846 144.089C51.1966 144.089 51.8056 143.802 52.2116 143.228V142.262C51.8056 141.954 51.2526 141.8 50.5526 141.8C50.1186 141.8 49.7546 141.905 49.4606 142.115C49.1806 142.311 49.0406 142.598 49.0406 142.976C49.0406 143.326 49.1666 143.599 49.4186 143.795C49.6706 143.991 49.9926 144.089 50.3846 144.089ZM56.9553 146V136.55H59.3703V143.753H62.0373V136.55H64.4523V143.753H67.1403V136.55H69.5553V146H56.9553ZM79.6466 143.354L80.3396 145.055C79.4156 145.839 78.2116 146.231 76.7276 146.231C75.2016 146.231 73.9696 145.776 73.0316 144.866C72.1076 143.956 71.6456 142.759 71.6456 141.275C71.6456 139.861 72.1006 138.685 73.0106 137.747C73.9206 136.795 75.1316 136.319 76.6436 136.319C77.8896 136.319 78.9466 136.732 79.8146 137.558C80.6826 138.37 81.1166 139.42 81.1166 140.708C81.1166 141.24 81.0676 141.674 80.9696 142.01H74.1446C74.2426 142.71 74.5506 143.256 75.0686 143.648C75.5866 144.026 76.2236 144.215 76.9796 144.215C78.0436 144.215 78.9326 143.928 79.6466 143.354ZM76.5386 138.335C75.1666 138.335 74.3406 139.021 74.0606 140.393H78.7016C78.7156 139.805 78.5266 139.315 78.1346 138.923C77.7426 138.531 77.2106 138.335 76.5386 138.335ZM85.4768 146H83.0618V136.55H85.4768V142.535L89.8868 136.55H92.3018V146H89.8868V140.015L85.4768 146ZM84.4688 131.825H86.6738C86.6738 132.259 86.7578 132.623 86.9258 132.917C87.1078 133.211 87.3878 133.358 87.7658 133.358C88.1018 133.358 88.3538 133.211 88.5218 132.917C88.6898 132.623 88.7738 132.259 88.7738 131.825H90.9788C90.9788 132.777 90.6988 133.561 90.1388 134.177C89.5788 134.779 88.7878 135.08 87.7658 135.08C86.6458 135.08 85.8128 134.786 85.2668 134.198C84.7348 133.596 84.4688 132.805 84.4688 131.825ZM105.895 146V138.818H101.863V146H99.4475V136.55H108.31V146H105.895ZM110.993 150.2V136.55H113.408V137.453C113.716 137.131 114.129 136.865 114.647 136.655C115.179 136.431 115.739 136.319 116.327 136.319C117.615 136.319 118.651 136.767 119.435 137.663C120.219 138.559 120.611 139.714 120.611 141.128C120.611 142.598 120.149 143.816 119.225 144.782C118.301 145.748 117.097 146.231 115.613 146.231C114.675 146.231 113.94 146.077 113.408 145.769V150.2H110.993ZM115.571 138.587C114.745 138.587 114.024 138.93 113.408 139.616V143.438C113.968 143.802 114.633 143.984 115.403 143.984C116.215 143.984 116.859 143.725 117.335 143.207C117.811 142.675 118.049 142.003 118.049 141.191C118.049 140.421 117.832 139.798 117.398 139.322C116.964 138.832 116.355 138.587 115.571 138.587ZM123.522 144.845C122.584 143.907 122.115 142.717 122.115 141.275C122.115 139.833 122.584 138.65 123.522 137.726C124.474 136.788 125.72 136.319 127.26 136.319C128.8 136.319 130.039 136.788 130.977 137.726C131.929 138.65 132.405 139.833 132.405 141.275C132.405 142.717 131.929 143.907 130.977 144.845C130.039 145.769 128.8 146.231 127.26 146.231C125.72 146.231 124.474 145.769 123.522 144.845ZM124.698 141.275C124.698 142.059 124.936 142.71 125.412 143.228C125.902 143.732 126.518 143.984 127.26 143.984C128.016 143.984 128.632 143.739 129.108 143.249C129.598 142.745 129.843 142.087 129.843 141.275C129.843 140.491 129.598 139.847 129.108 139.343C128.618 138.839 128.002 138.587 127.26 138.587C126.532 138.587 125.923 138.839 125.433 139.343C124.943 139.833 124.698 140.477 124.698 141.275ZM133.054 148.205V143.753H134.251C134.993 142.773 135.434 141.128 135.574 138.818L135.721 136.55H142.693V143.753H144.268V148.205H142V146H135.301V148.205H133.054ZM137.905 139.784C137.737 141.618 137.359 142.941 136.771 143.753H140.278V138.818H137.968L137.905 139.784ZM154.971 136.55L151.254 146C150.582 147.638 149.98 148.744 149.448 149.318C148.93 149.906 148.314 150.2 147.6 150.2C146.914 150.2 146.235 149.955 145.563 149.465L146.34 147.638C146.718 147.862 147.047 147.974 147.327 147.974C147.901 147.974 148.384 147.484 148.776 146.504L148.986 146L144.618 136.55H147.516L149.721 141.716C149.805 141.926 149.959 142.381 150.183 143.081C150.295 142.465 150.407 142.003 150.519 141.695L152.22 136.55H154.971ZM165.364 136.55L161.731 141.044L165.805 146H162.655L158.917 141.233L162.319 136.55H165.364ZM156.418 146V136.55H158.833V146H156.418ZM167.226 146V136.55H169.641V143.753H173.526V136.55H175.941V143.753H177.516V148.205H175.248V146H167.226ZM181.535 146H179.12V136.55H181.535V142.535L185.945 136.55H188.36V146H185.945V140.015L181.535 146ZM193.471 146H191.056V136.55H193.471V142.535L197.881 136.55H200.296V146H197.881V140.015L193.471 146Z" fill="white"/>
</g>
<g filter="url(#filter7_d_53_28)">
<path d="M186 199H216M216 199L202.957 190M216 199L202.957 208" stroke="white" stroke-width="1.5" stroke-linejoin="round"/>
</g>
<defs>
<filter id="filter0_f_53_28" x="78" y="0" width="241" height="241" filterUnits="userSpaceOnUse" color-interpolation-filters="sRGB">
<feFlood flood-opacity="0" result="BackgroundImageFix"/>
<feBlend mode="normal" in="SourceGraphic" in2="BackgroundImageFix" result="shape"/>
<feGaussianBlur stdDeviation="45" result="effect1_foregroundBlur_53_28"/>
</filter>
<filter id="filter1_b_53_28" x="-16" y="67" width="267" height="178" filterUnits="userSpaceOnUse" color-interpolation-filters="sRGB">
<feFlood flood-opacity="0" result="BackgroundImageFix"/>
<feGaussianBlur in="BackgroundImageFix" stdDeviation="9"/>
<feComposite in2="SourceAlpha" operator="in" result="effect1_backgroundBlur_53_28"/>
<feBlend mode="normal" in="SourceGraphic" in2="effect1_backgroundBlur_53_28" result="shape"/>
</filter>
<filter id="filter2_b_53_28" x="-16" y="111" width="267" height="134" filterUnits="userSpaceOnUse" color-interpolation-filters="sRGB">
<feFlood flood-opacity="0" result="BackgroundImageFix"/>
<feGaussianBlur in="BackgroundImageFix" stdDeviation="9"/>
<feComposite in2="SourceAlpha" operator="in" result="effect1_backgroundBlur_53_28"/>
<feBlend mode="normal" in="SourceGraphic" in2="effect1_backgroundBlur_53_28" result="shape"/>
</filter>
<filter id="filter3_d_53_28" x="3.255" y="153.93" width="198.457" height="44.552" filterUnits="userSpaceOnUse" color-interpolation-filters="sRGB">
<feFlood flood-opacity="0" result="BackgroundImageFix"/>
<feColorMatrix in="SourceAlpha" type="matrix" values="0 0 0 0 0 0 0 0 0 0 0 0 0 0 0 0 0 0 127 0" result="hardAlpha"/>
<feOffset/>
<feGaussianBlur stdDeviation="7.5"/>
<feComposite in2="hardAlpha" operator="out"/>
<feColorMatrix type="matrix" values="0 0 0 0 1 0 0 0 0 1 0 0 0 0 1 0 0 0 0.3 0"/>
<feBlend mode="normal" in2="BackgroundImageFix" result="effect1_dropShadow_53_28"/>
<feBlend mode="normal" in="SourceGraphic" in2="effect1_dropShadow_53_28" result="shape"/>
</filter>
<filter id="filter4_d_53_28" x="5.71399" y="176.44" width="175.991" height="44.96" filterUnits="userSpaceOnUse" color-interpolation-filters="sRGB">
<feFlood flood-opacity="0" result="BackgroundImageFix"/>
<feColorMatrix in="SourceAlpha" type="matrix" values="0 0 0 0 0 0 0 0 0 0 0 0 0 0 0 0 0 0 127 0" result="hardAlpha"/>
<feOffset/>
<feGaussianBlur stdDeviation="7.5"/>
<feComposite in2="hardAlpha" operator="out"/>
<feColorMatrix type="matrix" values="0 0 0 0 1 0 0 0 0 1 0 0 0 0 1 0 0 0 0.3 0"/>
<feBlend mode="normal" in2="BackgroundImageFix" result="effect1_dropShadow_53_28"/>
<feBlend mode="normal" in="SourceGraphic" in2="effect1_dropShadow_53_28" result="shape"/>
</filter>
<filter id="filter5_d_53_28" x="0.287964" y="81.936" width="200.681" height="47.328" filterUnits="userSpaceOnUse" color-interpolation-filters="sRGB">
<feFlood flood-opacity="0" result="BackgroundImageFix"/>
<feColorMatrix in="SourceAlpha" type="matrix" values="0 0 0 0 0 0 0 0 0 0 0 0 0 0 0 0 0 0 127 0" result="hardAlpha"/>
<feOffset/>
<feGaussianBlur stdDeviation="7.5"/>
<feComposite in2="hardAlpha" operator="out"/>
<feColorMatrix type="matrix" values="0 0 0 0 1 0 0 0 0 1 0 0 0 0 1 0 0 0 0.3 0"/>
<feBlend mode="normal" in2="BackgroundImageFix" result="effect1_dropShadow_53_28"/>
<feBlend mode="normal" in="SourceGraphic" in2="effect1_dropShadow_53_28" result="shape"/>
</filter>
<filter id="filter6_d_53_28" x="3.75598" y="116.825" width="211.54" height="48.375" filterUnits="userSpaceOnUse" color-interpolation-filters="sRGB">
<feFlood flood-opacity="0" result="BackgroundImageFix"/>
<feColorMatrix in="SourceAlpha" type="matrix" values="0 0 0 0 0 0 0 0 0 0 0 0 0 0 0 0 0 0 127 0" result="hardAlpha"/>
<feOffset/>
<feGaussianBlur stdDeviation="7.5"/>
<feComposite in2="hardAlpha" operator="out"/>
<feColorMatrix type="matrix" values="0 0 0 0 1 0 0 0 0 1 0 0 0 0 1 0 0 0 0.3 0"/>
<feBlend mode="normal" in2="BackgroundImageFix" result="effect1_dropShadow_53_28"/>
<feBlend mode="normal" in="SourceGraphic" in2="effect1_dropShadow_53_28" result="shape"/>
</filter>
<filter id="filter7_d_53_28" x="171" y="174.383" width="60.75" height="49.2346" filterUnits="userSpaceOnUse" color-interpolation-filters="sRGB">
<feFlood flood-opacity="0" result="BackgroundImageFix"/>
<feColorMatrix in="SourceAlpha" type="matrix" values="0 0 0 0 0 0 0 0 0 0 0 0 0 0 0 0 0 0 127 0" result="hardAlpha"/>
<feOffset/>
<feGaussianBlur stdDeviation="7.5"/>
<feComposite in2="hardAlpha" operator="out"/>
<feColorMatrix type="matrix" values="0 0 0 0 1 0 0 0 0 1 0 0 0 0 1 0 0 0 0.3 0"/>
<feBlend mode="normal" in2="BackgroundImageFix" result="effect1_dropShadow_53_28"/>
<feBlend mode="normal" in="SourceGraphic" in2="effect1_dropShadow_53_28" result="shape"/>
</filter>
</defs>
</svg>
